<mxfile host="app.diagrams.net" agent="Mozilla/5.0 (X11; Linux x86_64) AppleWebKit/537.36 (KHTML, like Gecko) Chrome/135.0.0.0 Safari/537.36" version="26.2.12">
  <diagram name="Page-1" id="eXMW50_a6_TtAfHFuQqr">
    <mxGraphModel dx="3173" dy="1493" grid="1" gridSize="10" guides="1" tooltips="1" connect="1" arrows="1" fold="1" page="1" pageScale="1" pageWidth="850" pageHeight="1400" math="0" shadow="0">
      <root>
        <mxCell id="0" />
        <mxCell id="1" parent="0" />
        <mxCell id="8cVub68EsbET4ltTRfXx-1" value="&lt;font style=&quot;font-size: 22px;&quot;&gt;Sparkling Wine Data&lt;/font&gt;" style="rounded=0;whiteSpace=wrap;html=1;" vertex="1" parent="1">
          <mxGeometry x="160" y="40" width="280" height="60" as="geometry" />
        </mxCell>
        <mxCell id="8cVub68EsbET4ltTRfXx-2" value="&lt;div&gt;&lt;font style=&quot;font-size: 22px;&quot;&gt;&lt;br&gt;&lt;/font&gt;&lt;/div&gt;&lt;div&gt;&lt;font style=&quot;font-size: 22px;&quot;&gt;Rose Data&lt;/font&gt;&lt;/div&gt;" style="rounded=0;whiteSpace=wrap;html=1;" vertex="1" parent="1">
          <mxGeometry x="440" y="40" width="280" height="60" as="geometry" />
        </mxCell>
        <mxCell id="8cVub68EsbET4ltTRfXx-3" value="&lt;font style=&quot;font-size: 20px;&quot;&gt;Forecast Horizon Slider Selector&lt;/font&gt;" style="rounded=0;whiteSpace=wrap;html=1;" vertex="1" parent="1">
          <mxGeometry x="240" y="120" width="400" height="40" as="geometry" />
        </mxCell>
        <mxCell id="8cVub68EsbET4ltTRfXx-6" value="&lt;font style=&quot;font-size: 25px;&quot;&gt;Historical Data + Forecasted Data with CI&lt;/font&gt;" style="rounded=0;whiteSpace=wrap;html=1;" vertex="1" parent="1">
          <mxGeometry x="120" y="200" width="640" height="160" as="geometry" />
        </mxCell>
        <mxCell id="8cVub68EsbET4ltTRfXx-7" value="&lt;font style=&quot;font-size: 25px;&quot;&gt;Summary Plots of the SARIMA model&lt;/font&gt;" style="rounded=0;whiteSpace=wrap;html=1;" vertex="1" parent="1">
          <mxGeometry x="120" y="400" width="480" height="200" as="geometry" />
        </mxCell>
        <mxCell id="8cVub68EsbET4ltTRfXx-8" value="&lt;font style=&quot;font-size: 23px;&quot;&gt;Trainng Data vs Test data vs Model Forecast&lt;/font&gt;" style="rounded=0;whiteSpace=wrap;html=1;" vertex="1" parent="1">
          <mxGeometry x="120" y="960" width="640" height="160" as="geometry" />
        </mxCell>
        <mxCell id="8cVub68EsbET4ltTRfXx-9" value="&lt;font style=&quot;font-size: 29px;&quot;&gt;Model Sector Pane&lt;/font&gt;" style="rounded=0;whiteSpace=wrap;html=1;" vertex="1" parent="1">
          <mxGeometry x="120" y="880" width="640" height="40" as="geometry" />
        </mxCell>
        <mxCell id="8cVub68EsbET4ltTRfXx-10" value="&lt;font style=&quot;font-size: 22px;&quot;&gt;Original Data vs Stationary Data Plot&lt;/font&gt;" style="rounded=0;whiteSpace=wrap;html=1;" vertex="1" parent="1">
          <mxGeometry x="120" y="1160" width="640" height="200" as="geometry" />
        </mxCell>
        <mxCell id="8cVub68EsbET4ltTRfXx-11" value="&lt;font style=&quot;font-size: 25px;&quot;&gt;Residual Plots (both the plots)&lt;/font&gt;" style="rounded=0;whiteSpace=wrap;html=1;" vertex="1" parent="1">
          <mxGeometry x="120" y="640" width="480" height="200" as="geometry" />
        </mxCell>
        <mxCell id="8cVub68EsbET4ltTRfXx-12" value="&lt;font style=&quot;font-size: 24px;&quot;&gt;About the Model and Result interpreations&lt;/font&gt;" style="rounded=0;whiteSpace=wrap;html=1;" vertex="1" parent="1">
          <mxGeometry x="640" y="400" width="120" height="200" as="geometry" />
        </mxCell>
        <mxCell id="8cVub68EsbET4ltTRfXx-13" value="&lt;font style=&quot;font-size: 24px;&quot;&gt;About the Model and Result interpreations&lt;/font&gt;" style="rounded=0;whiteSpace=wrap;html=1;" vertex="1" parent="1">
          <mxGeometry x="640" y="640" width="120" height="200" as="geometry" />
        </mxCell>
      </root>
    </mxGraphModel>
  </diagram>
</mxfile>
